<svg xmlns="http://www.w3.org/2000/svg" viewBox="0 0 860 180" width="100%" role="img" aria-label="contribution activity graph">
<defs><linearGradient id="ag" x1="0" y1="0" x2="1" y2="1"><stop offset="0" stop-color="#1e070c"/><stop offset="0.6" stop-color="#150509"/><stop offset="1" stop-color="#100407"/></linearGradient>
<linearGradient id="fill" x1="0" y1="0" x2="0" y2="1"><stop offset="0" stop-color="#e0143c" stop-opacity="0.35"/><stop offset="1" stop-color="#e0143c" stop-opacity="0.02"/></linearGradient></defs>
<rect x="0" y="0" width="860" height="180" rx="12" fill="url(#ag)"/>
<rect x="0" y="0" width="5" height="180" rx="2" fill="#e0143c"/>
<text x="24" y="34" font-family="ui-monospace,'Cascadia Code','JetBrains Mono',Consolas,monospace" font-size="14" fill="#e6cfd0"><tspan fill="#e0143c">◆ </tspan>contribution activity · last year</text>
<line x1="24" y1="150" x2="836" y2="150" stroke="#3a1a20"/>
<path d="M24 150 L24.0 150.0 L39.6 150.0 L55.2 150.0 L70.8 150.0 L86.5 150.0 L102.1 150.0 L117.7 144.8 L133.3 149.1 L148.9 150.0 L164.5 150.0 L180.2 149.1 L195.8 148.3 L211.4 149.6 L227.0 150.0 L242.6 150.0 L258.2 150.0 L273.8 150.0 L289.5 150.0 L305.1 150.0 L320.7 150.0 L336.3 150.0 L351.9 150.0 L367.5 150.0 L383.2 150.0 L398.8 150.0 L414.4 150.0 L430.0 150.0 L445.6 150.0 L461.2 150.0 L476.8 150.0 L492.5 147.8 L508.1 150.0 L523.7 133.1 L539.3 141.3 L554.9 114.8 L570.5 137.8 L586.2 144.4 L601.8 146.1 L617.4 147.4 L633.0 150.0 L648.6 149.6 L664.2 148.3 L679.8 124.8 L695.5 141.3 L711.1 147.4 L726.7 124.4 L742.3 147.8 L757.9 148.7 L773.5 58.0 L789.2 127.0 L804.8 139.2 L820.4 117.0 L836.0 112.7 L836 150 Z" fill="url(#fill)"/>
<path d="M24.0 150.0 L39.6 150.0 L55.2 150.0 L70.8 150.0 L86.5 150.0 L102.1 150.0 L117.7 144.8 L133.3 149.1 L148.9 150.0 L164.5 150.0 L180.2 149.1 L195.8 148.3 L211.4 149.6 L227.0 150.0 L242.6 150.0 L258.2 150.0 L273.8 150.0 L289.5 150.0 L305.1 150.0 L320.7 150.0 L336.3 150.0 L351.9 150.0 L367.5 150.0 L383.2 150.0 L398.8 150.0 L414.4 150.0 L430.0 150.0 L445.6 150.0 L461.2 150.0 L476.8 150.0 L492.5 147.8 L508.1 150.0 L523.7 133.1 L539.3 141.3 L554.9 114.8 L570.5 137.8 L586.2 144.4 L601.8 146.1 L617.4 147.4 L633.0 150.0 L648.6 149.6 L664.2 148.3 L679.8 124.8 L695.5 141.3 L711.1 147.4 L726.7 124.4 L742.3 147.8 L757.9 148.7 L773.5 58.0 L789.2 127.0 L804.8 139.2 L820.4 117.0 L836.0 112.7 " fill="none" stroke="#e0143c" stroke-width="2" stroke-linejoin="round"/>
<circle cx="836.0" cy="112.7" r="4" fill="#ff5a3c"/>
<text x="836" y="34" text-anchor="end" font-family="ui-monospace,'Cascadia Code','JetBrains Mono',Consolas,monospace" font-size="12" fill="#a98a8e">peak 212/wk</text>
</svg>