<svg xmlns="http://www.w3.org/2000/svg" viewBox="0 0 820 372" width="100%" role="img" aria-label="arsenal">
<defs><linearGradient id="bg" x1="0" y1="0" x2="1" y2="1"><stop offset="0" stop-color="#1e070c"/><stop offset="0.6" stop-color="#150509"/><stop offset="1" stop-color="#100407"/></linearGradient></defs>
<rect x="0" y="0" width="820" height="372" rx="12" fill="url(#bg)"/>
<rect x="0" y="0" width="5" height="372" rx="2" fill="#e0143c"/>
<line x1="120" y1="14" x2="120" y2="358" stroke="#3a1a20" stroke-width="1"/>
<text x="28" y="51" font-family="ui-monospace,'Cascadia Code','JetBrains Mono',Consolas,monospace" font-size="14" fill="#e0143c">lang</text>
<g>
<rect x="130.0" y="31" width="67.6" height="30" rx="7" fill="#17090c" stroke="#3a1a20" stroke-width="1"/>
<circle cx="141.0" cy="46" r="3" fill="#e0143c"/>
<text x="150.0" y="51.25" font-family="ui-monospace,'Cascadia Code','JetBrains Mono',Consolas,monospace" font-size="15" fill="#e6cfd0">Java</text>
</g>
<g>
<rect x="205.6" y="31" width="84.9" height="30" rx="7" fill="#17090c" stroke="#3a1a20" stroke-width="1"/>
<circle cx="216.6" cy="46" r="3" fill="#e0143c"/>
<text x="225.6" y="51.25" font-family="ui-monospace,'Cascadia Code','JetBrains Mono',Consolas,monospace" font-size="15" fill="#e6cfd0">Kotlin</text>
</g>
<g>
<rect x="298.5" y="31" width="84.9" height="30" rx="7" fill="#17090c" stroke="#3a1a20" stroke-width="1"/>
<circle cx="309.5" cy="46" r="3" fill="#e0143c"/>
<text x="318.5" y="51.25" font-family="ui-monospace,'Cascadia Code','JetBrains Mono',Consolas,monospace" font-size="15" fill="#e6cfd0">Python</text>
</g>
<g>
<rect x="391.4" y="31" width="119.5" height="30" rx="7" fill="#17090c" stroke="#3a1a20" stroke-width="1"/>
<circle cx="402.4" cy="46" r="3" fill="#e0143c"/>
<text x="411.4" y="51.25" font-family="ui-monospace,'Cascadia Code','JetBrains Mono',Consolas,monospace" font-size="15" fill="#e6cfd0">JavaScript</text>
</g>
<g>
<rect x="518.9" y="31" width="119.5" height="30" rx="7" fill="#17090c" stroke="#3a1a20" stroke-width="1"/>
<circle cx="529.9" cy="46" r="3" fill="#e0143c"/>
<text x="538.9" y="51.25" font-family="ui-monospace,'Cascadia Code','JetBrains Mono',Consolas,monospace" font-size="15" fill="#e6cfd0">TypeScript</text>
</g>
<g>
<rect x="646.4" y="31" width="50.3" height="30" rx="7" fill="#17090c" stroke="#3a1a20" stroke-width="1"/>
<circle cx="657.4" cy="46" r="3" fill="#e0143c"/>
<text x="666.4" y="51.25" font-family="ui-monospace,'Cascadia Code','JetBrains Mono',Consolas,monospace" font-size="15" fill="#e6cfd0">C#</text>
</g>
<g>
<rect x="704.7" y="31" width="67.6" height="30" rx="7" fill="#17090c" stroke="#3a1a20" stroke-width="1"/>
<circle cx="715.7" cy="46" r="3" fill="#e0143c"/>
<text x="724.7" y="51.25" font-family="ui-monospace,'Cascadia Code','JetBrains Mono',Consolas,monospace" font-size="15" fill="#e6cfd0">Bash</text>
</g>
<line x1="18" y1="74" x2="802" y2="74" stroke="#2a1015" stroke-width="1"/>
<text x="28" y="107" font-family="ui-monospace,'Cascadia Code','JetBrains Mono',Consolas,monospace" font-size="14" fill="#e0143c">mobile</text>
<g>
<rect x="130.0" y="87" width="128.2" height="30" rx="7" fill="#17090c" stroke="#3a1a20" stroke-width="1"/>
<circle cx="141.0" cy="102" r="3" fill="#e0143c"/>
<text x="150.0" y="107.25" font-family="ui-monospace,'Cascadia Code','JetBrains Mono',Consolas,monospace" font-size="15" fill="#e6cfd0">Android SDK</text>
</g>
<g>
<rect x="266.1" y="87" width="162.8" height="30" rx="7" fill="#17090c" stroke="#3a1a20" stroke-width="1"/>
<circle cx="277.1" cy="102" r="3" fill="#e0143c"/>
<text x="286.1" y="107.25" font-family="ui-monospace,'Cascadia Code','JetBrains Mono',Consolas,monospace" font-size="15" fill="#e6cfd0">Jetpack Compose</text>
</g>
<g>
<rect x="436.9" y="87" width="84.9" height="30" rx="7" fill="#17090c" stroke="#3a1a20" stroke-width="1"/>
<circle cx="447.9" cy="102" r="3" fill="#e0143c"/>
<text x="456.9" y="107.25" font-family="ui-monospace,'Cascadia Code','JetBrains Mono',Consolas,monospace" font-size="15" fill="#e6cfd0">Gradle</text>
</g>
<line x1="18" y1="130" x2="802" y2="130" stroke="#2a1015" stroke-width="1"/>
<text x="28" y="163" font-family="ui-monospace,'Cascadia Code','JetBrains Mono',Consolas,monospace" font-size="14" fill="#e0143c">web</text>
<g>
<rect x="130.0" y="143" width="76.3" height="30" rx="7" fill="#17090c" stroke="#3a1a20" stroke-width="1"/>
<circle cx="141.0" cy="158" r="3" fill="#e0143c"/>
<text x="150.0" y="163.25" font-family="ui-monospace,'Cascadia Code','JetBrains Mono',Consolas,monospace" font-size="15" fill="#e6cfd0">React</text>
</g>
<g>
<rect x="214.3" y="143" width="93.6" height="30" rx="7" fill="#17090c" stroke="#3a1a20" stroke-width="1"/>
<circle cx="225.3" cy="158" r="3" fill="#e0143c"/>
<text x="234.3" y="163.25" font-family="ui-monospace,'Cascadia Code','JetBrains Mono',Consolas,monospace" font-size="15" fill="#e6cfd0">Node.js</text>
</g>
<g>
<rect x="315.8" y="143" width="67.6" height="30" rx="7" fill="#17090c" stroke="#3a1a20" stroke-width="1"/>
<circle cx="326.8" cy="158" r="3" fill="#e0143c"/>
<text x="335.8" y="163.25" font-family="ui-monospace,'Cascadia Code','JetBrains Mono',Consolas,monospace" font-size="15" fill="#e6cfd0">SCSS</text>
</g>
<g>
<rect x="391.4" y="143" width="76.3" height="30" rx="7" fill="#17090c" stroke="#3a1a20" stroke-width="1"/>
<circle cx="402.4" cy="158" r="3" fill="#e0143c"/>
<text x="411.4" y="163.25" font-family="ui-monospace,'Cascadia Code','JetBrains Mono',Consolas,monospace" font-size="15" fill="#e6cfd0">HTML5</text>
</g>
<line x1="18" y1="186" x2="802" y2="186" stroke="#2a1015" stroke-width="1"/>
<text x="28" y="219" font-family="ui-monospace,'Cascadia Code','JetBrains Mono',Consolas,monospace" font-size="14" fill="#e0143c">bots</text>
<g>
<rect x="130.0" y="199" width="93.6" height="30" rx="7" fill="#17090c" stroke="#3a1a20" stroke-width="1"/>
<circle cx="141.0" cy="214" r="3" fill="#e0143c"/>
<text x="150.0" y="219.25" font-family="ui-monospace,'Cascadia Code','JetBrains Mono',Consolas,monospace" font-size="15" fill="#e6cfd0">aiogram</text>
</g>
<g>
<rect x="231.6" y="199" width="119.5" height="30" rx="7" fill="#17090c" stroke="#3a1a20" stroke-width="1"/>
<circle cx="242.6" cy="214" r="3" fill="#e0143c"/>
<text x="251.6" y="219.25" font-family="ui-monospace,'Cascadia Code','JetBrains Mono',Consolas,monospace" font-size="15" fill="#e6cfd0">discord.py</text>
</g>
<g>
<rect x="359.1" y="199" width="136.8" height="30" rx="7" fill="#17090c" stroke="#3a1a20" stroke-width="1"/>
<circle cx="370.1" cy="214" r="3" fill="#e0143c"/>
<text x="379.1" y="219.25" font-family="ui-monospace,'Cascadia Code','JetBrains Mono',Consolas,monospace" font-size="15" fill="#e6cfd0">Telegram API</text>
</g>
<line x1="18" y1="242" x2="802" y2="242" stroke="#2a1015" stroke-width="1"/>
<text x="28" y="275" font-family="ui-monospace,'Cascadia Code','JetBrains Mono',Consolas,monospace" font-size="14" fill="#e0143c">game</text>
<g>
<rect x="130.0" y="255" width="102.2" height="30" rx="7" fill="#17090c" stroke="#3a1a20" stroke-width="1"/>
<circle cx="141.0" cy="270" r="3" fill="#e0143c"/>
<text x="150.0" y="275.25" font-family="ui-monospace,'Cascadia Code','JetBrains Mono',Consolas,monospace" font-size="15" fill="#e6cfd0">NeoForge</text>
</g>
<g>
<rect x="240.2" y="255" width="84.9" height="30" rx="7" fill="#17090c" stroke="#3a1a20" stroke-width="1"/>
<circle cx="251.2" cy="270" r="3" fill="#e0143c"/>
<text x="260.2" y="275.25" font-family="ui-monospace,'Cascadia Code','JetBrains Mono',Consolas,monospace" font-size="15" fill="#e6cfd0">Fabric</text>
</g>
<g>
<rect x="333.1" y="255" width="154.1" height="30" rx="7" fill="#17090c" stroke="#3a1a20" stroke-width="1"/>
<circle cx="344.1" cy="270" r="3" fill="#e0143c"/>
<text x="353.1" y="275.25" font-family="ui-monospace,'Cascadia Code','JetBrains Mono',Consolas,monospace" font-size="15" fill="#e6cfd0">Paper / Spigot</text>
</g>
<g>
<rect x="495.2" y="255" width="119.5" height="30" rx="7" fill="#17090c" stroke="#3a1a20" stroke-width="1"/>
<circle cx="506.2" cy="270" r="3" fill="#e0143c"/>
<text x="515.2" y="275.25" font-family="ui-monospace,'Cascadia Code','JetBrains Mono',Consolas,monospace" font-size="15" fill="#e6cfd0">Blockbench</text>
</g>
<line x1="18" y1="298" x2="802" y2="298" stroke="#2a1015" stroke-width="1"/>
<text x="28" y="331" font-family="ui-monospace,'Cascadia Code','JetBrains Mono',Consolas,monospace" font-size="14" fill="#e0143c">ops</text>
<g>
<rect x="130.0" y="311" width="119.5" height="30" rx="7" fill="#17090c" stroke="#3a1a20" stroke-width="1"/>
<circle cx="141.0" cy="326" r="3" fill="#e0143c"/>
<text x="150.0" y="331.25" font-family="ui-monospace,'Cascadia Code','JetBrains Mono',Consolas,monospace" font-size="15" fill="#e6cfd0">Arch Linux</text>
</g>
<g>
<rect x="257.5" y="311" width="102.2" height="30" rx="7" fill="#17090c" stroke="#3a1a20" stroke-width="1"/>
<circle cx="268.5" cy="326" r="3" fill="#e0143c"/>
<text x="277.5" y="331.25" font-family="ui-monospace,'Cascadia Code','JetBrains Mono',Consolas,monospace" font-size="15" fill="#e6cfd0">Hyprland</text>
</g>
<g>
<rect x="367.7" y="311" width="84.9" height="30" rx="7" fill="#17090c" stroke="#3a1a20" stroke-width="1"/>
<circle cx="378.7" cy="326" r="3" fill="#e0143c"/>
<text x="387.7" y="331.25" font-family="ui-monospace,'Cascadia Code','JetBrains Mono',Consolas,monospace" font-size="15" fill="#e6cfd0">Docker</text>
</g>
<g>
<rect x="460.6" y="311" width="59.0" height="30" rx="7" fill="#17090c" stroke="#3a1a20" stroke-width="1"/>
<circle cx="471.6" cy="326" r="3" fill="#e0143c"/>
<text x="480.6" y="331.25" font-family="ui-monospace,'Cascadia Code','JetBrains Mono',Consolas,monospace" font-size="15" fill="#e6cfd0">VPS</text>
</g>
<g>
<rect x="527.5" y="311" width="59.0" height="30" rx="7" fill="#17090c" stroke="#3a1a20" stroke-width="1"/>
<circle cx="538.5" cy="326" r="3" fill="#e0143c"/>
<text x="547.5" y="331.25" font-family="ui-monospace,'Cascadia Code','JetBrains Mono',Consolas,monospace" font-size="15" fill="#e6cfd0">SSH</text>
</g>
<g>
<rect x="594.5" y="311" width="67.6" height="30" rx="7" fill="#17090c" stroke="#3a1a20" stroke-width="1"/>
<circle cx="605.5" cy="326" r="3" fill="#e0143c"/>
<text x="614.5" y="331.25" font-family="ui-monospace,'Cascadia Code','JetBrains Mono',Consolas,monospace" font-size="15" fill="#e6cfd0">SFTP</text>
</g>
<g>
<rect x="670.1" y="311" width="67.6" height="30" rx="7" fill="#17090c" stroke="#3a1a20" stroke-width="1"/>
<circle cx="681.1" cy="326" r="3" fill="#e0143c"/>
<text x="690.1" y="331.25" font-family="ui-monospace,'Cascadia Code','JetBrains Mono',Consolas,monospace" font-size="15" fill="#e6cfd0">Bash</text>
</g>
</svg>
