<svg xmlns="http://www.w3.org/2000/svg" viewBox="0 0 860 444" width="100%" role="img" aria-label="stats, activity and contacts"><defs><style>
.mono{font-family:ui-monospace,'Cascadia Code','JetBrains Mono',Consolas,monospace}.nm{font-family:'UF',serif}
.rd{fill:#e0143c;opacity:0}.cy{fill:#00e6d6;opacity:0}
.gl{animation:gl 5s infinite steps(1)}.rdA{animation:rdA 3.6s infinite steps(1)}.cyA{animation:cyA 4.3s infinite steps(1)}
.ln{opacity:0}.l1{animation:l1 9s infinite}.l2{animation:l2 9s infinite}.l3{animation:l3 9s infinite}.cur{animation:cur 1.05s steps(1) infinite}
.gb{opacity:0}.g1{animation:g1 8.5s infinite steps(1)}.g2{animation:g2 11s infinite steps(1)}.g3{animation:g3 13s infinite steps(1)}
.pulse{animation:pulse 1.8s ease-in-out infinite}
@keyframes gl{0%,89%,100%{opacity:1}90%{opacity:.6}91%{opacity:1}95%{opacity:.82}96%{opacity:1}}
@keyframes rdA{0%,86%,100%{opacity:0}87%{opacity:.7;transform:translate(4px,2px)}90%{opacity:0}93%{opacity:.55;transform:translate(-3px,-2px)}94%{opacity:0}}
@keyframes cyA{0%,88%,100%{opacity:0}89%{opacity:.6;transform:translate(-4px,-2px)}91%{opacity:0}94%{opacity:.5;transform:translate(3px,2px)}95%{opacity:0}}
@keyframes l1{0%{opacity:0}2%{opacity:1}30%{opacity:1}33%{opacity:0}100%{opacity:0}}
@keyframes l2{0%,33%{opacity:0}35%{opacity:1}63%{opacity:1}66%{opacity:0}100%{opacity:0}}
@keyframes l3{0%,66%{opacity:0}68%{opacity:1}96%{opacity:1}98%{opacity:0}100%{opacity:0}}
@keyframes cur{50%{opacity:0}}
@keyframes g1{0%,92%,100%{opacity:0;transform:translateY(30px)}93%{opacity:.45;transform:translateY(120px)}94%{opacity:0}}
@keyframes g2{0%,88%,100%{opacity:0;transform:translateY(200px)}89%{opacity:.4;transform:translateY(80px)}90%{opacity:0}}
@keyframes g3{0%,95%,100%{opacity:0;transform:translateY(260px)}96%{opacity:.35;transform:translateY(300px)}97%{opacity:0}}
@keyframes pulse{0%,100%{opacity:1}50%{opacity:.35}}
@media (prefers-reduced-motion:reduce){.gl,.rdA,.cyA,.l1,.l2,.l3,.cur,.g1,.g2,.g3,.pulse{animation:none}.rd,.cy,.gb{opacity:0}.ln{opacity:1}.l2,.l3{display:none}}</style>
<linearGradient id="bg" x1="0" y1="0" x2="0" y2="1"><stop offset="0" stop-color="#1c0409"/><stop offset="0.55" stop-color="#120407"/><stop offset="1" stop-color="#0c0205"/></linearGradient>
<radialGradient id="glow" cx="50%" cy="0%" r="70%"><stop offset="0" stop-color="#e0143c" stop-opacity="0.14"/><stop offset="100%" stop-color="#e0143c" stop-opacity="0"/></radialGradient>
<linearGradient id="name" x1="0" y1="0" x2="0" y2="1"><stop offset="0" stop-color="#ffe4e4"/><stop offset="55%" stop-color="#f0aeae"/><stop offset="100%" stop-color="#cc2333"/></linearGradient>
<pattern id="grid" width="26" height="26" patternUnits="userSpaceOnUse" patternTransform="rotate(45)"><path d="M0 0 H26 M0 0 V26" stroke="#e0143c" stroke-width="0.7" fill="none" opacity="0.06"/></pattern>
<filter id="ng"><feGaussianBlur stdDeviation="6"/></filter>
<clipPath id="clip"><rect x="0" y="0" width="860" height="444" rx="14"/></clipPath></defs>
<g clip-path="url(#clip)">
<rect width="860" height="444" fill="url(#bg)"/>
<rect width="860" height="444" fill="url(#grid)"/>
<ellipse cx="430" cy="0" rx="520" ry="220" fill="url(#glow)"/>
<rect class="gb g1" width="860" height="5" fill="#e0143c"/>
<rect class="gb g2" width="860" height="3" fill="#00e6d6"/>
<rect class="gb g3" width="860" height="7" fill="#8b0a20"/>
</g>
<rect x="0.5" y="0.5" width="859" height="443" rx="14" fill="none" stroke="#3a1a20"/><path d="M16 26 L29 21.5 L29 30.5 Z" fill="#e0143c"/><path d="M844 26 L831 21.5 L831 30.5 Z" fill="#e0143c"/><line x1="31" y1="26" x2="387.5" y2="26" stroke="#8b0a20" stroke-width="1.4"/><line x1="472.5" y1="26" x2="829" y2="26" stroke="#8b0a20" stroke-width="1.4"/><rect x="384.5" y="23" width="6" height="6" fill="#e0143c" transform="rotate(45 387.5 26)"/><rect x="469.5" y="23" width="6" height="6" fill="#e0143c" transform="rotate(45 472.5 26)"/><text class="mono" x="430" y="30" text-anchor="middle" font-size="12" letter-spacing="2.5" fill="#e0143c">STATS</text><line x1="470" y1="48" x2="470" y2="168" stroke="#2a1015"/><text class="mono" x="24" y="62" font-size="13" fill="#e6cfd0"><tspan fill="#e0143c">◆ </tspan>combat_log · AlexFirst404</text><text class="mono" x="24" y="92" font-size="13" fill="#a98a8e">commits</text><text class="mono" x="450" y="92" text-anchor="end" font-size="13" fill="#f2dede" font-weight="bold">827</text><line x1="24" y1="100" x2="450" y2="100" stroke="#2a1015" stroke-dasharray="1 3"/><text class="mono" x="24" y="118" font-size="13" fill="#a98a8e">pull requests</text><text class="mono" x="450" y="118" text-anchor="end" font-size="13" fill="#f2dede" font-weight="bold">2</text><line x1="24" y1="126" x2="450" y2="126" stroke="#2a1015" stroke-dasharray="1 3"/><text class="mono" x="24" y="144" font-size="13" fill="#a98a8e">stars earned</text><text class="mono" x="450" y="144" text-anchor="end" font-size="13" fill="#f2dede" font-weight="bold">28</text><line x1="24" y1="152" x2="450" y2="152" stroke="#2a1015" stroke-dasharray="1 3"/><text class="mono" x="24" y="170" font-size="13" fill="#a98a8e">repositories</text><text class="mono" x="450" y="170" text-anchor="end" font-size="13" fill="#f2dede" font-weight="bold">44</text><line x1="24" y1="178" x2="450" y2="178" stroke="#2a1015" stroke-dasharray="1 3"/><text class="mono" x="500" y="62" font-size="13" fill="#e6cfd0"><tspan fill="#e0143c">◆ </tspan>contribution streak</text><text class="mono" x="668" y="114" text-anchor="middle" font-size="46" font-weight="bold" fill="#ff5a3c">3</text><text class="mono" x="668" y="134" text-anchor="middle" font-size="10" fill="#a98a8e" letter-spacing="2">CURRENT · DAYS</text><text class="mono" x="500" y="162" font-size="13" fill="#a98a8e">longest streak</text><text class="mono" x="836" y="162" text-anchor="end" font-size="13" fill="#f2dede" font-weight="bold">9d</text><line x1="500" y1="170" x2="836" y2="170" stroke="#2a1015" stroke-dasharray="1 3"/><text class="mono" x="500" y="184" font-size="13" fill="#a98a8e">contributions (1y)</text><text class="mono" x="836" y="184" text-anchor="end" font-size="13" fill="#f2dede" font-weight="bold">830</text><line x1="500" y1="192" x2="836" y2="192" stroke="#2a1015" stroke-dasharray="1 3"/><path d="M16 204 L29 199.5 L29 208.5 Z" fill="#e0143c"/><path d="M844 204 L831 199.5 L831 208.5 Z" fill="#e0143c"/><line x1="31" y1="204" x2="372.8" y2="204" stroke="#8b0a20" stroke-width="1.4"/><line x1="487.2" y1="204" x2="829" y2="204" stroke="#8b0a20" stroke-width="1.4"/><rect x="369.8" y="201" width="6" height="6" fill="#e0143c" transform="rotate(45 372.8 204)"/><rect x="484.2" y="201" width="6" height="6" fill="#e0143c" transform="rotate(45 487.2 204)"/><text class="mono" x="430" y="208" text-anchor="middle" font-size="12" letter-spacing="2.5" fill="#e0143c">ACTIVITY</text><defs><linearGradient id="afill" x1="0" y1="0" x2="0" y2="1"><stop offset="0" stop-color="#e0143c" stop-opacity="0.32"/><stop offset="1" stop-color="#e0143c" stop-opacity="0.02"/></linearGradient></defs><line x1="24" y1="334" x2="836" y2="334" stroke="#3a1a20"/><path d="M24 334 L24.0 334.0 L39.6 334.0 L55.2 334.0 L70.8 334.0 L86.5 334.0 L102.1 334.0 L117.7 328.3 L133.3 333.1 L148.9 334.0 L164.5 334.0 L180.2 333.1 L195.8 332.1 L211.4 333.5 L227.0 334.0 L242.6 334.0 L258.2 334.0 L273.8 334.0 L289.5 334.0 L305.1 334.0 L320.7 334.0 L336.3 334.0 L351.9 334.0 L367.5 334.0 L383.2 334.0 L398.8 334.0 L414.4 334.0 L430.0 334.0 L445.6 334.0 L461.2 334.0 L476.8 334.0 L492.5 331.6 L508.1 334.0 L523.7 315.6 L539.3 324.6 L554.9 295.8 L570.5 320.8 L586.2 327.9 L601.8 329.8 L617.4 331.2 L633.0 334.0 L648.6 333.5 L664.2 332.1 L679.8 306.6 L695.5 324.6 L711.1 331.2 L726.7 306.2 L742.3 331.6 L757.9 332.6 L773.5 234.0 L789.2 309.0 L804.8 322.2 L820.4 298.2 L836.0 293.4 L836 334 Z" fill="url(#afill)"/><path d="M24.0 334.0 L39.6 334.0 L55.2 334.0 L70.8 334.0 L86.5 334.0 L102.1 334.0 L117.7 328.3 L133.3 333.1 L148.9 334.0 L164.5 334.0 L180.2 333.1 L195.8 332.1 L211.4 333.5 L227.0 334.0 L242.6 334.0 L258.2 334.0 L273.8 334.0 L289.5 334.0 L305.1 334.0 L320.7 334.0 L336.3 334.0 L351.9 334.0 L367.5 334.0 L383.2 334.0 L398.8 334.0 L414.4 334.0 L430.0 334.0 L445.6 334.0 L461.2 334.0 L476.8 334.0 L492.5 331.6 L508.1 334.0 L523.7 315.6 L539.3 324.6 L554.9 295.8 L570.5 320.8 L586.2 327.9 L601.8 329.8 L617.4 331.2 L633.0 334.0 L648.6 333.5 L664.2 332.1 L679.8 306.6 L695.5 324.6 L711.1 331.2 L726.7 306.2 L742.3 331.6 L757.9 332.6 L773.5 234.0 L789.2 309.0 L804.8 322.2 L820.4 298.2 L836.0 293.4 " fill="none" stroke="#e0143c" stroke-width="1.8" stroke-linejoin="round"/><circle cx="836.0" cy="293.4" r="3.5" fill="#ff5a3c"/><text class="mono" x="836" y="226" text-anchor="end" font-size="11" fill="#a98a8e">peak 212/wk</text><path d="M16 356 L29 351.5 L29 360.5 Z" fill="#e0143c"/><path d="M844 356 L831 351.5 L831 360.5 Z" fill="#e0143c"/><line x1="31" y1="356" x2="372.8" y2="356" stroke="#8b0a20" stroke-width="1.4"/><line x1="487.2" y1="356" x2="829" y2="356" stroke="#8b0a20" stroke-width="1.4"/><rect x="369.8" y="353" width="6" height="6" fill="#e0143c" transform="rotate(45 372.8 356)"/><rect x="484.2" y="353" width="6" height="6" fill="#e0143c" transform="rotate(45 487.2 356)"/><text class="mono" x="430" y="360" text-anchor="middle" font-size="12" letter-spacing="2.5" fill="#e0143c">CONTACTS</text><rect x="137.8" y="376" width="155.2" height="30" rx="7" fill="#180a0d" stroke="#3a1a20"/><text class="mono" x="215.4" y="395.25" text-anchor="middle" font-size="12.5" font-weight="bold" fill="#ff5a3c">◈ undernetvpn.com</text><rect x="303.0" y="376" width="223.6" height="30" rx="7" fill="#e0143c" stroke="#e0143c"/><text class="mono" x="414.8" y="395.25" text-anchor="middle" font-size="12.5" font-weight="bold" fill="#0a0506">◈ Telegram · @AlexFirst404</text><rect x="536.6" y="376" width="185.6" height="30" rx="7" fill="#180a0d" stroke="#3a1a20"/><text class="mono" x="629.4" y="395.25" text-anchor="middle" font-size="12.5" font-weight="bold" fill="#e0143c">◈ Discord · alexfirst</text><text class="mono" x="430" y="428" text-anchor="middle" font-size="12" fill="#7a4a4f">// signal lost — connection terminated <tspan class="cur" fill="#e0143c">▮</tspan></text></svg>