<svg xmlns="http://www.w3.org/2000/svg" viewBox="0 0 860 474" width="100%" role="img" aria-label="stats, activity and contacts"><defs><style>
.mono{font-family:ui-monospace,'Cascadia Code','JetBrains Mono',Consolas,monospace}
.cur{animation:cur 1.05s steps(1) infinite}
.gb{opacity:0}.g1{animation:g1 8.5s infinite steps(1)}.g2{animation:g2 11s infinite steps(1)}.g3{animation:g3 13s infinite steps(1)}
.flame{transform-origin:12px 21px;animation:flick 1.7s ease-in-out infinite}
@keyframes cur{50%{opacity:0}}
@keyframes flick{0%,100%{transform:scaleY(1) scaleX(1)}45%{transform:scaleY(1.09) scaleX(0.95)}70%{transform:scaleY(0.97) scaleX(1.03)}}
@keyframes g1{0%,92%,100%{opacity:0;transform:translateY(30px)}93%{opacity:.45;transform:translateY(120px)}94%{opacity:0}}
@keyframes g2{0%,88%,100%{opacity:0;transform:translateY(200px)}89%{opacity:.4;transform:translateY(80px)}90%{opacity:0}}
@keyframes g3{0%,95%,100%{opacity:0;transform:translateY(260px)}96%{opacity:.35;transform:translateY(300px)}97%{opacity:0}}
@media (prefers-reduced-motion:reduce){.cur,.g1,.g2,.g3,.flame{animation:none}.gb{opacity:0}}</style>
<linearGradient id="bg" x1="0" y1="0" x2="0" y2="1"><stop offset="0" stop-color="#1c0409"/><stop offset="0.55" stop-color="#120407"/><stop offset="1" stop-color="#0c0205"/></linearGradient>
<radialGradient id="glow" cx="50%" cy="0%" r="70%"><stop offset="0" stop-color="#e0143c" stop-opacity="0.14"/><stop offset="100%" stop-color="#e0143c" stop-opacity="0"/></radialGradient>
<pattern id="grid" width="26" height="26" patternUnits="userSpaceOnUse" patternTransform="rotate(45)"><path d="M0 0 H26 M0 0 V26" stroke="#e0143c" stroke-width="0.7" fill="none" opacity="0.06"/></pattern>
<clipPath id="clip"><rect x="0" y="0" width="860" height="474" rx="14"/></clipPath></defs>
<g clip-path="url(#clip)">
<rect width="860" height="474" fill="url(#bg)"/>
<rect width="860" height="474" fill="url(#grid)"/>
<ellipse cx="430" cy="0" rx="520" ry="220" fill="url(#glow)"/>
<rect class="gb g1" width="860" height="5" fill="#e0143c"/>
<rect class="gb g2" width="860" height="3" fill="#00e6d6"/>
<rect class="gb g3" width="860" height="7" fill="#8b0a20"/>
</g>
<rect x="0.5" y="0.5" width="859" height="473" rx="14" fill="none" stroke="#3a1a20"/><path d="M16 26 L29 21.5 L29 30.5 Z" fill="#e0143c"/><path d="M844 26 L831 21.5 L831 30.5 Z" fill="#e0143c"/><line x1="31" y1="26" x2="387.5" y2="26" stroke="#8b0a20" stroke-width="1.4"/><line x1="472.5" y1="26" x2="829" y2="26" stroke="#8b0a20" stroke-width="1.4"/><rect x="384.5" y="23" width="6" height="6" fill="#e0143c" transform="rotate(45 387.5 26)"/><rect x="469.5" y="23" width="6" height="6" fill="#e0143c" transform="rotate(45 472.5 26)"/><text class="mono" x="430" y="30" text-anchor="middle" font-size="12" letter-spacing="2.5" fill="#e0143c">STATS</text><line x1="470" y1="48" x2="470" y2="230" stroke="#2a1015"/><text class="mono" x="24" y="62" font-size="13" fill="#e6cfd0"><tspan fill="#e0143c">◆ </tspan>combat_log · AlexFirst404</text><text class="mono" x="24" y="92" font-size="13" fill="#a98a8e">commits</text><text class="mono" x="450" y="92" text-anchor="end" font-size="13" fill="#f2dede" font-weight="bold">1,583</text><line x1="24" y1="100" x2="450" y2="100" stroke="#2a1015" stroke-dasharray="1 3"/><text class="mono" x="24" y="118" font-size="13" fill="#a98a8e">pull requests</text><text class="mono" x="450" y="118" text-anchor="end" font-size="13" fill="#f2dede" font-weight="bold">2</text><line x1="24" y1="126" x2="450" y2="126" stroke="#2a1015" stroke-dasharray="1 3"/><text class="mono" x="24" y="144" font-size="13" fill="#a98a8e">stars earned</text><text class="mono" x="450" y="144" text-anchor="end" font-size="13" fill="#f2dede" font-weight="bold">35</text><line x1="24" y1="152" x2="450" y2="152" stroke="#2a1015" stroke-dasharray="1 3"/><text class="mono" x="24" y="170" font-size="13" fill="#a98a8e">repositories</text><text class="mono" x="450" y="170" text-anchor="end" font-size="13" fill="#f2dede" font-weight="bold">48</text><line x1="24" y1="178" x2="450" y2="178" stroke="#2a1015" stroke-dasharray="1 3"/><defs><linearGradient id="flameg" x1="0" y1="0" x2="0" y2="1"><stop offset="0" stop-color="#ffb04d"/><stop offset="0.5" stop-color="#ff4d2e"/><stop offset="1" stop-color="#c8102a"/></linearGradient></defs><text class="mono" x="500" y="62" font-size="13" fill="#e6cfd0"><tspan fill="#e0143c">◆ </tspan>contribution streak</text><g transform="translate(610.4,64) scale(4.8)"><g class="flame"><path d="M12 2 C15 8 18 10 18 15 A6 6 0 0 1 6 15 C6 11 9 9 9.5 6 C10.5 8.5 12 8 12 2 Z" fill="url(#flameg)"/><path d="M12 8 C13.5 11 15 12.5 15 15 A3 3 0 0 1 9 15 C9 13 10.5 12 11 10 C11.5 11.5 12 11 12 8 Z" fill="#ffe0b0" opacity="0.9"/><text class="mono" x="12" y="16.2" text-anchor="middle" font-size="7.2" font-weight="bold" fill="#ffffff">6</text></g></g><text class="mono" x="668" y="180" text-anchor="middle" font-size="10" fill="#a98a8e" letter-spacing="2">CURRENT · DAYS</text><text class="mono" x="500" y="200" font-size="13" fill="#a98a8e">longest streak</text><text class="mono" x="836" y="200" text-anchor="end" font-size="13" fill="#f2dede" font-weight="bold">12d</text><line x1="500" y1="208" x2="836" y2="208" stroke="#2a1015" stroke-dasharray="1 3"/><text class="mono" x="500" y="222" font-size="13" fill="#a98a8e">contributions (1y)</text><text class="mono" x="836" y="222" text-anchor="end" font-size="13" fill="#f2dede" font-weight="bold">1,589</text><line x1="500" y1="230" x2="836" y2="230" stroke="#2a1015" stroke-dasharray="1 3"/><path d="M16 234 L29 229.5 L29 238.5 Z" fill="#e0143c"/><path d="M844 234 L831 229.5 L831 238.5 Z" fill="#e0143c"/><line x1="31" y1="234" x2="372.8" y2="234" stroke="#8b0a20" stroke-width="1.4"/><line x1="487.2" y1="234" x2="829" y2="234" stroke="#8b0a20" stroke-width="1.4"/><rect x="369.8" y="231" width="6" height="6" fill="#e0143c" transform="rotate(45 372.8 234)"/><rect x="484.2" y="231" width="6" height="6" fill="#e0143c" transform="rotate(45 487.2 234)"/><text class="mono" x="430" y="238" text-anchor="middle" font-size="12" letter-spacing="2.5" fill="#e0143c">ACTIVITY</text><defs><linearGradient id="afill" x1="0" y1="0" x2="0" y2="1"><stop offset="0" stop-color="#e0143c" stop-opacity="0.32"/><stop offset="1" stop-color="#e0143c" stop-opacity="0.02"/></linearGradient></defs><line x1="24" y1="364" x2="836" y2="364" stroke="#3a1a20"/><path d="M24 364 L24.0 364.0 L39.6 364.0 L55.2 364.0 L70.8 359.1 L86.5 363.2 L102.1 364.0 L117.7 364.0 L133.3 363.2 L148.9 362.4 L164.5 363.2 L180.2 364.0 L195.8 364.0 L211.4 364.0 L227.0 364.0 L242.6 364.0 L258.2 364.0 L273.8 364.0 L289.5 364.0 L305.1 364.0 L320.7 364.0 L336.3 364.0 L351.9 364.0 L367.5 364.0 L383.2 364.0 L398.8 364.0 L414.4 364.0 L430.0 364.0 L445.6 362.0 L461.2 364.0 L476.8 347.7 L492.5 355.8 L508.1 330.9 L523.7 352.6 L539.3 358.7 L554.9 360.3 L570.5 361.6 L586.2 364.0 L601.8 363.6 L617.4 362.4 L633.0 340.3 L648.6 355.8 L664.2 361.6 L679.8 339.9 L695.5 347.3 L711.1 362.8 L726.7 276.2 L742.3 339.9 L757.9 345.2 L773.5 319.5 L789.2 264.0 L804.8 273.8 L820.4 335.4 L836.0 279.1 L836 364 Z" fill="url(#afill)"/><path d="M24.0 364.0 L39.6 364.0 L55.2 364.0 L70.8 359.1 L86.5 363.2 L102.1 364.0 L117.7 364.0 L133.3 363.2 L148.9 362.4 L164.5 363.2 L180.2 364.0 L195.8 364.0 L211.4 364.0 L227.0 364.0 L242.6 364.0 L258.2 364.0 L273.8 364.0 L289.5 364.0 L305.1 364.0 L320.7 364.0 L336.3 364.0 L351.9 364.0 L367.5 364.0 L383.2 364.0 L398.8 364.0 L414.4 364.0 L430.0 364.0 L445.6 362.0 L461.2 364.0 L476.8 347.7 L492.5 355.8 L508.1 330.9 L523.7 352.6 L539.3 358.7 L554.9 360.3 L570.5 361.6 L586.2 364.0 L601.8 363.6 L617.4 362.4 L633.0 340.3 L648.6 355.8 L664.2 361.6 L679.8 339.9 L695.5 347.3 L711.1 362.8 L726.7 276.2 L742.3 339.9 L757.9 345.2 L773.5 319.5 L789.2 264.0 L804.8 273.8 L820.4 335.4 L836.0 279.1 " fill="none" stroke="#e0143c" stroke-width="1.8" stroke-linejoin="round"/><circle cx="836.0" cy="279.1" r="3.5" fill="#ff5a3c"/><text class="mono" x="836" y="256" text-anchor="end" font-size="11" fill="#a98a8e">peak 245/wk</text><path d="M16 386 L29 381.5 L29 390.5 Z" fill="#e0143c"/><path d="M844 386 L831 381.5 L831 390.5 Z" fill="#e0143c"/><line x1="31" y1="386" x2="372.8" y2="386" stroke="#8b0a20" stroke-width="1.4"/><line x1="487.2" y1="386" x2="829" y2="386" stroke="#8b0a20" stroke-width="1.4"/><rect x="369.8" y="383" width="6" height="6" fill="#e0143c" transform="rotate(45 372.8 386)"/><rect x="484.2" y="383" width="6" height="6" fill="#e0143c" transform="rotate(45 487.2 386)"/><text class="mono" x="430" y="390" text-anchor="middle" font-size="12" letter-spacing="2.5" fill="#e0143c">CONTACTS</text><rect x="137.8" y="406" width="155.2" height="30" rx="7" fill="#180a0d" stroke="#3a1a20"/><text class="mono" x="215.4" y="425.25" text-anchor="middle" font-size="12.5" font-weight="bold" fill="#ff5a3c">◈ undernetvpn.com</text><rect x="303.0" y="406" width="223.6" height="30" rx="7" fill="#e0143c" stroke="#e0143c"/><text class="mono" x="414.8" y="425.25" text-anchor="middle" font-size="12.5" font-weight="bold" fill="#0a0506">◈ Telegram · @AlexFirst404</text><rect x="536.6" y="406" width="185.6" height="30" rx="7" fill="#180a0d" stroke="#3a1a20"/><text class="mono" x="629.4" y="425.25" text-anchor="middle" font-size="12.5" font-weight="bold" fill="#e0143c">◈ Discord · alexfirst</text><text class="mono" x="430" y="458" text-anchor="middle" font-size="12" fill="#7a4a4f">// signal lost — connection terminated <tspan class="cur" fill="#e0143c">▮</tspan></text></svg>